<?xml version="1.0" encoding="UTF-8" standalone="no"?>
<svg
   xmlns:dc="http://purl.org/dc/elements/1.1/"
   xmlns:cc="http://creativecommons.org/ns#"
   xmlns:rdf="http://www.w3.org/1999/02/22-rdf-syntax-ns#"
   xmlns:svg="http://www.w3.org/2000/svg"
   xmlns="http://www.w3.org/2000/svg"
   xmlns:sodipodi="http://sodipodi.sourceforge.net/DTD/sodipodi-0.dtd"
   xmlns:inkscape="http://www.inkscape.org/namespaces/inkscape"
   width="512"
   height="512"
   viewBox="0 0 135.46666 135.46667"
   version="1.1"
   id="svg273"
   inkscape:version="1.0.2-2 (e86c870879, 2021-01-15)"
   sodipodi:docname="anima.svg">
  <defs
     id="defs267" />
  <sodipodi:namedview
     id="base"
     pagecolor="#ffffff"
     bordercolor="#666666"
     borderopacity="1.0"
     inkscape:pageopacity="0.0"
     inkscape:pageshadow="2"
     inkscape:zoom="0.35"
     inkscape:cx="-150"
     inkscape:cy="560"
     inkscape:document-units="mm"
     inkscape:current-layer="layer1"
     inkscape:document-rotation="0"
     showgrid="false"
     inkscape:window-width="1920"
     inkscape:window-height="1009"
     inkscape:window-x="-8"
     inkscape:window-y="-8"
     inkscape:window-maximized="1"
     units="px" />
  <metadata
     id="metadata270">
    <rdf:RDF>
      <cc:Work
         rdf:about="">
        <dc:format>image/svg+xml</dc:format>
        <dc:type
           rdf:resource="http://purl.org/dc/dcmitype/StillImage" />
        <dc:title />
      </cc:Work>
    </rdf:RDF>
  </metadata>
  <g
     inkscape:label="Layer 1"
     inkscape:groupmode="layer"
     id="layer1">
    <path
       style="fill:#b198d3;stroke-width:0.395801;fill-opacity:1"
       d="m 44.115642,133.78475 c 0.0034,-0.38096 0.409581,-1.40436 0.90222,-2.27421 0.779658,-1.37665 1.535194,-1.89805 5.831541,-4.02438 5.547327,-2.74545 7.770032,-4.73276 8.85512,-7.9173 0.977694,-2.8694 0.830516,-3.73583 -0.926006,-5.45102 -0.85714,-0.83699 -1.751271,-1.98733 -1.98696,-2.55632 -0.311791,-0.75275 -1.25503,-1.40648 -3.462903,-2.40001 C 42.792778,104.42036 35.573357,95.355179 34.009699,84.903348 l -0.281274,-1.88006 h 3.013448 c 1.657397,0 3.013448,-0.08751 3.013448,-0.194479 0,-0.106923 -0.621754,-1.009019 -1.381677,-2.004564 -1.843058,-2.414548 -2.729716,-5.552118 -2.472946,-8.750946 0.159071,-1.981631 0.680017,-3.499849 2.522301,-7.350893 2.301926,-4.811874 2.321796,-4.883982 2.318991,-8.415672 -0.0022,-2.928 -0.160888,-3.858875 -0.890551,-5.228591 -0.488253,-0.916514 -0.887725,-1.759652 -0.887725,-1.873643 0,-0.114002 0.667922,0.09312 1.484257,0.460327 5.285676,2.377423 7.367306,7.274252 7.584259,17.841273 0.09368,4.563048 6.101853,5.071428 6.997723,0.592112 0.369449,-1.847265 -0.368102,-3.561714 -3.794205,-8.819588 -4.047329,-6.211255 -4.560096,-7.712027 -4.531419,-13.262709 0.01829,-3.550718 0.187456,-4.77255 0.916839,-6.623921 1.310466,-3.326328 3.644144,-6.601472 7.929832,-11.128986 4.875355,-5.150447 6.143389,-6.790308 7.441446,-9.623469 0.901659,-1.967988 1.061212,-2.863532 1.081183,-6.068778 0.0212,-3.3991225 -0.08594,-3.9690981 -1.115773,-5.9370073 -0.626567,-1.1973055 -1.484717,-2.6667076 -1.90701,-3.2653604 -1.122852,-1.5917961 -0.370806,-1.338627 2.516613,0.8472107 3.353658,2.5387823 7.188781,6.758972 8.863198,9.753135 4.029367,7.205162 3.833103,11.532599 -0.96606,21.301226 -3.079587,6.26843 -3.602036,7.841848 -3.605211,10.857619 -0.0045,3.840407 1.878803,6.498206 4.603527,6.498206 1.153403,0 1.722706,-0.256636 2.453233,-1.105933 0.893436,-1.038673 0.932973,-1.287792 0.650252,-4.096539 -0.772926,-7.678727 -0.341086,-10.835886 1.933723,-14.137363 1.132872,-1.644169 6.128332,-5.645094 7.076608,-5.667746 0.161595,-0.0034 -0.242286,1.017119 -0.897508,2.26884 -0.820755,1.567921 -1.268381,3.105358 -1.439042,4.942559 -0.227039,2.444112 -0.145663,2.873597 0.975013,5.14541 0.672499,1.363276 2.21576,3.680753 3.429446,5.14993 5.033202,6.092732 6.711187,9.80462 6.665153,14.743993 -0.03422,3.663396 -0.88088,5.951354 -3.89499,10.524567 -3.002408,4.555462 -3.945389,7.132616 -3.61881,9.890089 0.128127,1.081823 0.340413,2.140814 0.471749,2.353324 0.136149,0.220284 2.52561,0.386367 5.558737,0.386367 2.925976,0 5.317326,0.13358 5.314106,0.296858 -0.0186,0.944776 -1.34789,5.822139 -2.19779,8.064097 -2.918964,7.700022 -8.138658,13.229827 -16.264642,17.230977 -3.508263,1.72742 -4.514747,2.41016 -4.890568,3.31748 -0.26026,0.62832 -1.075798,1.72781 -1.812294,2.44329 -1.644775,1.59784 -1.753537,3.18688 -0.414114,6.05048 1.167742,2.49654 3.755464,4.88885 6.797522,6.2842 6.000687,2.75245 6.694638,3.1908 7.596062,4.79822 1.80692,3.22213 3.556093,2.96851 -20.472392,2.96851 -20.09408,0 -21.372851,-0.0414 -21.366725,-0.69265 z m 36.40716,-2.41023 c 0,-1.04665 -2.438434,-1.25094 -14.932009,-1.25094 -12.449012,0 -15.544654,0.25231 -15.544654,1.26692 0,0.17396 6.857255,0.31628 15.238326,0.31628 8.381083,0 15.238337,-0.14951 15.238337,-0.33226 z m -9.324478,-6.09949 c -2.047153,-2.26557 -3.230995,-4.5552 -3.662667,-7.08382 -0.276809,-1.62152 -0.282576,-1.62609 -2.1164,-1.67435 -1.830638,-0.0482 -1.839715,-0.042 -2.034015,1.40913 -0.301065,2.24826 -1.971443,5.53161 -3.782963,7.4359 -0.902063,0.94828 -1.640119,1.7842 -1.640119,1.85761 0,0.0734 3.400601,0.13348 7.556884,0.13348 h 7.556894 z m -1.647479,-12.89704 0.809928,-0.80992 -5.012626,-0.12252 c -2.756946,-0.0674 -5.0123,-0.0318 -5.011907,0.0791 0.0011,0.27944 1.615749,1.32263 2.573428,1.66252 0.435374,0.15451 1.925522,0.21788 3.311428,0.14082 1.883358,-0.10468 2.724409,-0.3447 3.329749,-0.95003 z m 1.786276,-4.62827 c 4.470542,-0.8863 9.619441,-3.53625 13.059613,-6.72133 2.811619,-2.603127 5.62528,-6.04275 5.62528,-6.876755 0,-0.320386 -6.795221,-0.441725 -24.737549,-0.441725 -14.859834,0 -24.737538,0.145944 -24.737538,0.365488 0,0.419555 2.371028,3.644525 3.908387,5.315991 3.755284,4.082911 11.16711,7.896731 16.871152,8.681241 2.776536,0.38186 7.17065,0.24012 10.010655,-0.32291 z M 92.358104,89.297036 c 0.238988,-0.685548 0.434522,-1.66516 0.434522,-2.176895 v -0.930449 h -27.53483 c -26.032162,0 -27.524452,0.03781 -27.344815,0.69265 0.104566,0.38096 0.302692,1.360573 0.440412,2.176907 l 0.250398,1.484257 h 26.659896 26.659895 z m -9.721516,-8.654839 c -0.386278,-3.69572 0.634264,-6.792473 3.754847,-11.393824 3.960513,-5.839832 4.707297,-8.723975 3.399322,-13.128422 -0.747626,-2.517488 -1.891874,-4.407264 -4.919694,-8.12503 -3.088159,-3.791861 -4.675961,-6.476766 -5.243727,-8.866912 -0.263603,-1.109681 -0.607157,-2.017601 -0.763467,-2.017601 -0.515505,0 -0.813149,2.755926 -0.567867,5.257908 0.771198,7.866386 0.772702,7.595378 -0.05262,9.461144 -1.148647,2.59672 -3.205808,4.035964 -5.804996,4.061331 -2.941676,0.02872 -4.908362,-1.350934 -6.518256,-4.572628 -2.284962,-4.572607 -1.612384,-8.927038 2.690246,-17.417298 2.908153,-5.738553 3.79038,-8.746481 3.520202,-12.001945 -0.176921,-2.131838 -1.667383,-5.789883 -3.357238,-8.239706 -1.004879,-1.45678 -1.88742,-2.017151 -1.472027,-0.934667 0.39191,1.021316 -0.684639,5.515139 -1.900379,7.932638 -1.540579,3.063453 -2.73812,4.598848 -7.624155,9.775022 -6.41433,6.795244 -8.361023,10.842057 -8.050196,16.734958 0.194165,3.681246 1.240231,6.357513 4.017418,10.278252 2.670769,3.770498 3.755262,5.831822 4.228054,8.036407 1.029035,4.798198 -2.013663,8.833837 -6.660329,8.833837 -2.241464,0 -4.185106,-1.093649 -5.277957,-2.969838 -0.836294,-1.43571 -1.51961,-5.407475 -1.531918,-8.904172 -0.01223,-3.477746 -0.501951,-4.101273 -1.166418,-1.485132 -0.290395,1.143351 -1.339345,3.681831 -2.331007,5.641033 -3.111484,6.147383 -2.720449,9.726588 1.556791,14.249121 l 2.058541,2.176615 H 63.752603 82.88547 Z m -8.823974,-1.744248 c -1.791325,-3.845759 -0.595052,-7.99274 4.11919,-14.279391 3.428628,-4.572247 4.59076,-6.892338 4.83492,-9.652516 0.275103,-3.109913 0.58934,-3.707242 0.960416,-1.825712 0.895724,4.541674 0.127364,7.310872 -3.632027,13.089984 -3.670431,5.642346 -4.698579,8.003758 -5.071293,11.647565 l -0.303634,2.968502 z m -12.37715,-2.420158 c 3.458875,-3.880775 4.981862,-8.069605 4.284836,-11.785072 -0.180837,-0.96395 -0.955794,-2.028158 -2.682258,-3.683389 -4.223252,-4.049046 -5.067815,-5.04431 -6.173704,-7.275295 -0.963366,-1.943462 -1.077166,-2.601354 -1.061223,-6.134918 0.02356,-5.219896 1.370816,-8.648265 5.145746,-13.094516 l 1.316042,-1.550094 -1.56975,4.282368 c -0.863367,2.355309 -1.845291,5.470473 -2.182068,6.922597 -1.188386,5.12425 0.193728,8.836025 4.837904,12.992543 4.868039,4.356877 6.247606,7.659553 5.08884,12.18267 -1.070098,4.177005 -3.615915,7.212308 -7.428846,8.857207 -1.694107,0.730841 -1.670815,0.636765 0.424481,-1.714101 z"
       id="path24-1"
       sodipodi:nodetypes="cssssssscssssscsscssssssssssssscsssscsssscssssssssssssscsssssssssssscsccccssscsssssssssscscscccsssssssssssssssssssssssssscccssssssscssssssscssssss" />
  </g>
</svg>
