<?xml version="1.0" encoding="UTF-8" standalone="no"?>
<svg
   xmlns:dc="http://purl.org/dc/elements/1.1/"
   xmlns:cc="http://creativecommons.org/ns#"
   xmlns:rdf="http://www.w3.org/1999/02/22-rdf-syntax-ns#"
   xmlns:svg="http://www.w3.org/2000/svg"
   xmlns="http://www.w3.org/2000/svg"
   xmlns:sodipodi="http://sodipodi.sourceforge.net/DTD/sodipodi-0.dtd"
   xmlns:inkscape="http://www.inkscape.org/namespaces/inkscape"
   width="512"
   height="512"
   viewBox="0 0 135.46666 135.46667"
   version="1.1"
   id="svg273"
   inkscape:version="1.0.2-2 (e86c870879, 2021-01-15)"
   sodipodi:docname="corpus.svg">
  <defs
     id="defs267" />
  <sodipodi:namedview
     id="base"
     pagecolor="#ffffff"
     bordercolor="#666666"
     borderopacity="1.0"
     inkscape:pageopacity="0.0"
     inkscape:pageshadow="2"
     inkscape:zoom="0.35"
     inkscape:cx="-150"
     inkscape:cy="560"
     inkscape:document-units="mm"
     inkscape:current-layer="layer1"
     inkscape:document-rotation="0"
     showgrid="false"
     inkscape:window-width="1280"
     inkscape:window-height="720"
     inkscape:window-x="624"
     inkscape:window-y="9"
     inkscape:window-maximized="0"
     units="px" />
  <metadata
     id="metadata270">
    <rdf:RDF>
      <cc:Work
         rdf:about="">
        <dc:format>image/svg+xml</dc:format>
        <dc:type
           rdf:resource="http://purl.org/dc/dcmitype/StillImage" />
        <dc:title />
      </cc:Work>
    </rdf:RDF>
  </metadata>
  <g
     inkscape:label="Layer 1"
     inkscape:groupmode="layer"
     id="layer1">
    <path
       style="fill:#b198d3;stroke-width:0.408672;fill-opacity:1"
       d="m 43.479989,134.11733 c -2.642155,-0.563 -5.146975,-1.80124 -6.963476,-3.44233 -3.089472,-2.79117 -3.673418,-5.65091 -1.963286,-9.61474 l 0.958735,-2.2222 -0.789464,-1.51464 c -1.321592,-2.5355 -1.360308,-4.02839 -0.180948,-6.97633 0.584907,-1.46204 1.06347,-2.79477 1.06347,-2.96163 0,-0.22726 -2.582193,-4.09684 -3.959021,-5.93285 -0.362371,-0.48322 -0.656335,0.96487 -1.785489,8.79532 -1.814078,12.58021 -2.837767,19.03861 -3.079811,19.43026 -0.345492,0.559 -3.027357,0.4141 -3.025504,-0.16348 8.22e-4,-0.28097 0.265931,-2.16595 0.588927,-4.18888 0.323006,-2.02293 1.250035,-8.27559 2.060061,-13.89482 1.501626,-10.41691 1.706426,-11.1446 4.09245,-14.541648 0.913822,-1.301042 1.226009,-2.205249 1.226009,-3.550949 0,-1.515619 -0.196807,-1.962903 -1.226009,-2.786344 -2.074532,-1.659787 -4.887416,-1.165725 -7.151746,1.256152 -0.917239,0.981058 -1.012069,1.392338 -0.927618,4.023371 0.327177,10.193328 -0.09835,15.919618 -2.182254,29.365318 l -0.676725,4.36647 -1.607946,0.27164 c -0.884364,0.14943 -1.66375,0.20744 -1.731958,0.12893 -0.06823,-0.0786 0.291683,-2.55279 0.799762,-5.49841 2.155042,-12.49405 2.556453,-19.73735 1.582994,-28.564036 -0.269221,-2.441072 1.023665,-6.381035 2.413304,-7.354378 0.857951,-0.60094 0.862573,-0.65 0.163954,-1.740391 C 19.377168,83.995461 16.743413,78.300371 15.446542,74.412456 12.128091,64.46401 11.75087,52.888249 14.402221,42.365577 c 1.340927,-5.321818 5.608485,-14.355167 8.54589,-18.089473 1.066134,-1.35536 1.040892,-1.510059 -0.624224,-3.827792 -0.786313,-1.094503 -1.342097,-1.99 -1.235069,-1.99 0.10704,0 1.207626,0.496843 2.445775,1.104085 l 2.25117,1.104073 2.919009,-2.959798 C 40.478348,5.7686275 56.700211,0.17736859 74.070343,2.0703257 84.886563,3.249048 94.993645,7.8811319 103.98322,15.779425 c 1.98211,1.741479 3.70287,3.424458 3.82394,3.739959 0.32654,0.850942 1.10995,0.710945 3.89837,-0.696638 l 2.51635,-1.27025 -0.7581,1.168087 c -0.41697,0.642447 -1.20188,1.843619 -1.74426,2.669285 l -0.98616,1.501207 2.02265,2.997424 c 4.11227,6.094125 6.84663,12.583151 8.24805,19.573884 1.16453,5.809069 1.16205,15.781981 -0.006,21.831737 -1.24401,6.44628 -4.13593,13.996387 -7.38324,19.275899 l -0.79589,1.293976 1.01514,1.09536 c 1.79101,1.932542 2.43082,4.295419 2.07302,7.655978 -0.53057,4.983427 -0.51615,9.671387 0.0462,15.020007 0.59119,5.62264 2.10455,16.54802 2.44832,17.67503 0.18465,0.60537 -0.0563,0.71517 -1.56969,0.71517 h -1.78785 l -1.09231,-8.27559 c -1.70675,-12.93063 -2.06543,-17.20023 -1.71744,-20.44434 0.70596,-6.581484 0.22964,-9.057032 -2.09434,-10.885082 -0.72514,-0.570414 -1.67854,-0.853433 -2.87485,-0.853433 -1.45953,0 -2.06482,0.251937 -3.27927,1.364884 l -1.48934,1.364883 0.5002,1.986501 c 0.29539,1.173081 1.06602,2.612776 1.88203,3.515998 1.7461,1.932726 1.89653,2.535979 3.65371,14.653329 0.79859,5.50684 1.70603,11.57561 2.01655,13.48614 0.31052,1.91054 0.48314,3.61164 0.38364,3.78021 -0.0995,0.16858 -0.81024,0.3065 -1.57938,0.3065 -1.11317,0 -1.44296,-0.18758 -1.61659,-0.91951 -0.27149,-1.14438 -3.87972,-26.05446 -3.88228,-26.80201 -0.003,-0.93373 -0.64254,-0.36709 -2.77003,2.45504 l -2.056153,2.7275 0.981803,1.93931 c 1.14611,2.26387 1.29626,5.30216 0.38908,7.87339 -0.548775,1.5554 -0.528595,1.82434 0.27219,3.62725 1.21178,2.72822 1.12824,5.2813 -0.24973,7.63261 -3.908428,6.66924 -16.620559,7.54626 -26.724838,1.84376 -1.21651,-0.68656 -2.258293,-1.19026 -2.315081,-1.11931 -0.05677,0.0709 -0.771519,1.18641 -1.58831,2.47882 -2.05851,3.25727 -3.019249,3.23428 -4.804367,-0.11492 -0.722564,-1.35566 -1.422979,-2.41158 -1.556489,-2.34649 -0.13351,0.0651 -1.530053,0.78065 -3.103446,1.59016 -4.466255,2.2979 -7.750264,3.26851 -11.641307,3.44066 -1.91374,0.0847 -4.25748,-0.0118 -5.208325,-0.21442 z m 8.063203,-2.88958 c 3.049229,-0.48935 7.763841,-2.67199 9.705942,-4.49339 0.922799,-0.86544 1.328184,-1.61742 1.328184,-2.46375 0,-1.79182 -0.9032,-1.84215 -3.090854,-0.17228 -2.873808,2.19362 -5.449178,3.37277 -8.543296,3.91159 -5.293483,0.92182 -9.254402,-0.3678 -11.316098,-3.68438 -1.411221,-2.27017 -1.744284,-2.44901 -2.372991,-1.27426 -1.796019,3.35589 1.93195,7.32647 7.668675,8.1677 3.301084,0.48406 3.655845,0.48454 6.620438,0.009 z m 42.691062,-1.40965 c 1.336826,-0.6726 2.774112,-1.69858 3.193965,-2.27997 1.083451,-1.5003 1.379027,-4.13844 0.541546,-4.83349 -0.833404,-0.69168 -1.612696,-0.11191 -2.574687,1.91529 -0.923946,1.94708 -3.384214,2.99247 -7.67216,3.25998 -4.334888,0.27044 -6.982162,-0.5012 -11.04734,-3.22016 -1.731008,-1.15777 -3.275901,-1.93189 -3.461008,-1.73425 -0.183902,0.19633 -0.449613,0.90868 -0.590478,1.58298 -0.239785,1.14783 -0.08561,1.34152 2.418644,3.03717 4.225889,2.86148 7.300835,3.75239 12.466705,3.61205 3.826436,-0.10403 4.558997,-0.2499 6.724813,-1.3396 z m -24.872718,-4.02206 c 0.363912,-1.1577 0.744899,-3.66807 0.846621,-5.57861 0.101711,-1.91053 0.388436,-3.88747 0.637153,-4.39321 0.342932,-0.69729 0.320204,-1.16617 -0.09406,-1.94018 -0.44403,-0.82968 -0.453332,-1.46054 -0.0497,-3.37154 0.273113,-1.29298 0.472932,-2.71867 0.444052,-3.16821 -0.281582,-4.38354 -0.185315,-4.98549 1.137609,-7.11323 1.602074,-2.576688 1.721138,-4.257582 0.364514,-5.146463 -0.530008,-0.347288 -1.293546,-1.362983 -1.69674,-2.257124 -0.719947,-1.596548 -0.771683,-1.625694 -2.885287,-1.625694 -1.183715,0 -2.416815,-0.10148 -2.740228,-0.225641 -0.385458,-0.147909 -0.771855,0.218169 -1.121669,1.062682 -0.293502,0.708582 -1.14734,2.022888 -1.897428,2.920677 -0.750077,0.89779 -1.363783,1.854787 -1.363783,2.126672 0,0.271886 0.549979,1.361559 1.222187,2.421507 1.677858,2.645704 2.297414,5.224214 1.637846,6.816534 -0.39892,0.96309 -0.401584,1.47933 -0.01251,2.41872 0.624236,1.50702 0.690406,4.73273 0.111442,5.43038 -0.318582,0.38388 -0.280144,0.74711 0.13987,1.3215 0.340662,0.46589 0.579219,1.75883 0.579219,3.13932 0,2.6813 0.908864,7.39595 1.861019,9.65391 l 0.646525,1.53317 0.785814,-0.96013 c 0.432202,-0.52808 1.083569,-1.90735 1.447491,-3.06504 z m -13.73163,-3.96136 c 1.011467,-0.22337 2.896454,-0.793 4.188879,-1.26585 2.125272,-0.77755 2.349859,-0.97336 2.349859,-2.04873 0,-0.68129 -0.262444,-1.28973 -0.614598,-1.42487 -0.338032,-0.12971 -2.051654,0.15192 -3.808044,0.62584 -5.776667,1.55871 -12.78261,0.80623 -16.096925,-1.72889 -1.606046,-1.22848 -1.971094,-1.86872 -2.542389,-4.459 -0.136325,-0.61813 -0.516722,-1.12385 -0.845301,-1.12385 -0.725031,0 -1.205401,1.63764 -1.171934,3.99534 0.04657,3.28171 3.368345,6.1382 8.411593,7.23339 3.076104,0.668 7.59699,0.75575 10.12886,0.19662 z m 31.388357,10e-4 c 5.143928,-0.83474 8.976874,-2.7324 10.166846,-5.03353 0.785803,-1.5196 0.877447,-4.87907 0.156771,-5.74743 -0.965222,-1.16291 -1.662196,-0.77152 -1.662196,0.93353 0,2.90294 -2.394214,4.7884 -7.65387,6.02746 -3.210668,0.75637 -8.285623,0.53998 -12.049261,-0.51378 -2.827411,-0.79163 -3.591124,-0.57088 -3.591124,1.03799 0,1.0968 0.217023,1.29066 2.329666,2.08111 3.963746,1.48302 8.120685,1.89346 12.303168,1.21475 z M 59.07348,112.45925 c 1.332042,-0.21813 2.591985,-0.56669 2.799866,-0.77457 0.207894,-0.20789 0.247616,-0.97155 0.08828,-1.69702 l -0.289702,-1.31904 -3.327513,0.26999 c -5.704588,0.46285 -12.307789,-0.91597 -14.588209,-3.04621 -0.768264,-0.71767 -1.271479,-1.68906 -1.448511,-2.79621 -0.336816,-2.10632 -0.89231,-2.49043 -1.864796,-1.28947 -0.993778,1.22727 -0.9734,3.94131 0.04205,5.60675 1.443438,2.36725 6.013383,4.4801 10.85387,5.01816 4.171871,0.46374 5.052307,0.46688 7.734625,0.0276 z m 23.396987,-0.0322 c 1.758231,-0.23847 4.445216,-0.80008 5.971099,-1.24802 4.878009,-1.432 7.601253,-5.03034 6.558532,-8.66609 -0.589808,-2.05653 -1.822246,-1.7497 -2.491639,0.62032 -0.334661,1.1849 -1.012162,2.31519 -1.769907,2.95279 -2.330975,1.96139 -8.610623,3.22349 -13.97893,2.80951 -3.530317,-0.27224 -3.947493,-0.0622 -3.959262,1.99272 -0.0058,0.99729 0.18104,1.12683 2.139264,1.48396 2.980313,0.54355 3.879238,0.55009 7.530843,0.0548 z m -21.119159,-8.27993 c 0,-0.0723 -0.293143,-0.99186 -0.651424,-2.04336 -0.648439,-1.90306 -0.659988,-1.91183 -2.520719,-1.91183 -5.779644,0 -10.33453,-1.97144 -10.9936,-4.758238 -0.677408,-2.864376 -2.998455,-2.17192 -2.998455,0.894547 0,3.870681 4.782728,6.781171 12.343471,7.511541 4.593557,0.44372 4.820727,0.4582 4.820727,0.30734 z m 19.616213,-0.75942 c 2.777146,-0.66524 6.597096,-2.57965 7.934721,-3.976568 0.936146,-0.977652 1.230829,-1.717014 1.374418,-3.448508 0.114222,-1.377035 0.01043,-2.310377 -0.275791,-2.487445 -0.834132,-0.515527 -2.02518,0.197062 -2.281728,1.365115 -0.59224,2.696497 -4.644781,4.903865 -9.63042,5.245586 l -3.183039,0.21816 -0.647116,1.69446 c -0.355918,0.93195 -0.647126,1.85163 -0.647126,2.04374 0,0.40503 4.666025,-0.0104 7.356081,-0.65454 z m -43.903136,-2.06117 c 0.158637,-0.49981 1.061407,-1.660008 2.006171,-2.578211 1.302015,-1.265407 1.786578,-2.100027 2.002221,-3.448587 0.156482,-0.978522 0.139627,-1.908203 -0.03742,-2.065948 -0.437634,-0.389872 -3.927244,-1.215271 -5.137916,-1.215271 -0.841038,0 -1.08373,0.341462 -1.707874,2.402856 l -0.727521,2.402855 1.331925,2.705532 c 0.732561,1.488044 1.478202,2.705534 1.65696,2.705534 0.178771,0 0.454826,-0.40894 0.613463,-0.90876 z m 63.269905,-1.589205 1.21648,-2.237373 -0.78492,-2.740725 c -0.4317,-1.507394 -1.008025,-2.740714 -1.280732,-2.740714 -1.079641,0 -4.856833,0.936724 -5.337943,1.323782 -0.280968,0.226046 -0.510837,1.108614 -0.510837,1.961282 0,1.30717 0.243828,1.743426 1.554716,2.781664 0.85509,0.677247 1.909002,1.88924 2.342026,2.693309 0.433024,0.80409 0.96674,1.40216 1.186021,1.32905 0.219292,-0.0731 0.946131,-1.13971 1.615189,-2.370275 z M 60.913406,92.646791 c 1.866627,-0.965268 1.970411,-2.456039 0.269279,-3.86785 -0.505588,-0.419598 -0.965455,-0.384949 -2.458555,0.18528 -2.504034,0.956291 -6.397475,0.560186 -14.60663,-1.486044 -8.564239,-2.134747 -9.580803,-2.249328 -12.244296,-1.380083 -3.636464,1.186786 -4.168847,2.242539 -1.130844,2.242539 0.89531,0 5.527985,0.81948 10.29483,1.821066 15.43358,3.242816 17.831247,3.542595 19.876216,2.485092 z m 19.059549,0.173037 c 6.367263,-1.115577 11.81052,-2.180888 15.911066,-3.113975 2.472466,-0.562618 5.583789,-1.145927 6.914069,-1.296245 1.33025,-0.15032 2.48645,-0.477613 2.56929,-0.727326 0.21281,-0.641335 -3.61866,-2.202341 -5.405646,-2.202341 -0.820695,0 -4.372687,0.725344 -7.89333,1.611873 -3.520644,0.886541 -7.543771,1.828641 -8.940303,2.093564 -3.433565,0.651367 -7.194016,0.352027 -8.314308,-0.661827 -0.864449,-0.782305 -0.878245,-0.780671 -1.670362,0.197549 -1.186924,1.465794 -0.845834,2.947286 0.876683,3.807773 1.65696,0.827752 2.620305,0.87483 5.952841,0.290955 z m -9.753086,-5.502141 c 0.98597,-0.690603 1.954192,-3.186145 1.59715,-4.116591 -0.20553,-0.535592 -0.391772,-0.528989 -1.51899,0.05386 -1.269996,0.656741 -3.122825,0.643211 -5.822993,-0.04251 -0.780532,-0.198232 -1.273668,-0.12437 -1.488292,0.222895 -0.470708,0.761627 0.26351,2.956588 1.264899,3.781431 1.101894,0.907625 4.728918,0.968941 5.968226,0.1009 z M 57.071676,86.217715 c 1.156201,-0.526799 2.186575,-2.193514 2.666736,-4.313653 0.374315,-1.652766 0.09198,-1.659416 -1.90679,-0.04483 -0.873787,0.705836 -2.87544,1.886296 -4.448112,2.62326 -3.062818,1.435235 -3.01977,1.572162 0.611713,1.945585 0.786695,0.08086 1.559628,0.176511 1.717628,0.212481 0.157999,0.03591 0.769469,-0.154292 1.358825,-0.42283 z m 25.530528,-0.306487 c 0,-0.168936 -0.746277,-0.643687 -1.658396,-1.054991 -0.912108,-0.411302 -2.600439,-1.4507 -3.751845,-2.309763 -3.121353,-2.328843 -3.451299,-2.035306 -1.770348,1.574967 0.804639,1.728204 1.19647,2.139449 2.141523,2.247694 1.717616,0.196726 5.039066,-0.105071 5.039066,-0.457907 z M 26.934343,84.919233 c 4.639776,-2.333313 8.490759,-2.783413 13.811384,-1.614294 2.672112,0.587143 3.48135,0.612269 5.630843,0.174774 3.26734,-0.665014 7.820141,-2.85927 10.063745,-4.850288 l 1.781701,-1.581118 -1.75383,-2.322923 -1.753816,-2.322922 H 36.577598 c -10.07994,0 -18.136772,0.158717 -18.136772,0.357285 0,1.5807 5.60092,13.128856 6.367575,13.128856 0.109124,0 1.065762,-0.43621 2.125942,-0.96937 z m 85.178097,-2.533526 c 1.50872,-2.764323 4.00082,-8.720084 4.00082,-9.561389 0,-0.283689 -5.93701,-0.421856 -18.126663,-0.421856 H 79.859938 l -1.73139,2.468261 c -0.95227,1.357549 -1.629053,2.734944 -1.503976,3.060894 0.626262,1.632031 9.48975,5.913629 12.242001,5.913629 0.785665,0 2.869915,-0.275813 4.631644,-0.61293 5.081523,-0.972369 7.930833,-0.796704 12.398263,0.764372 2.1353,0.746162 4.05972,1.326018 4.27648,1.288577 0.21675,-0.03742 1.08952,-1.342236 1.93948,-2.899558 z M 70.431886,80.119593 c 0.946688,-0.506642 1.363865,-2.250231 0.723121,-3.022272 -0.371465,-0.447597 -1.389049,-0.607693 -3.862407,-0.607693 -3.141683,0 -3.38667,0.06279 -3.801924,0.974154 -1.166906,2.561062 3.664313,4.409559 6.94121,2.655811 z m 1.864958,-7.878456 c 3.06189,-1.555261 5.642995,-4.098449 7.040384,-6.936947 1.118194,-2.271373 1.246722,-2.898539 1.138861,-5.557235 l -0.121567,-2.996926 -1.283584,1.082155 c -0.705964,0.595194 -1.400656,1.548658 -1.543758,2.118818 -0.143102,0.570149 -0.731136,2.087887 -1.306741,3.372734 -1.03233,2.304307 -1.055106,2.323584 -1.673295,1.416585 -0.769585,-1.129106 -1.753041,-1.199945 -1.753041,-0.126282 0,1.219836 -0.645191,1.340035 -1.157499,0.215644 -0.528109,-1.159087 -2.224711,-1.440298 -2.027626,-0.336086 0.199344,1.116839 -0.72634,1.058592 -1.244336,-0.07831 -0.632067,-1.387218 -1.859096,-1.189067 -2.034252,0.32851 -0.151223,1.310112 -0.704075,1.47585 -1.010783,0.303013 -0.355977,-1.361258 -1.780357,-1.029457 -2.083301,0.485293 -0.271097,1.355465 -0.868435,1.207509 -1.13433,-0.280956 -0.08178,-0.457884 -0.525445,-0.871748 -1.008792,-0.941046 -0.725346,-0.104028 -0.831019,0.04252 -0.663358,0.91951 0.11121,0.581988 0.01043,1.043208 -0.22907,1.043208 -0.763977,0 -2.060757,-2.255513 -2.776151,-4.828659 -0.720514,-2.59153 -1.789277,-4.162105 -2.8323,-4.162105 -0.95037,0 -0.776373,4.393538 0.286668,7.238581 1.130414,3.025365 4.995881,7.036051 7.698345,7.987569 2.934984,1.033373 7.400866,0.910659 9.719526,-0.267078 z M 52.769213,69.21254 c 0,-0.366622 -6.388091,-11.112606 -6.937503,-11.670173 -0.436082,-0.442582 -2.493306,0.54253 -13.488099,6.458812 -4.828149,2.598029 -8.919972,4.723694 -9.092927,4.723694 -0.172956,0 -0.31447,0.183902 -0.31447,0.408674 0,0.264981 5.244608,0.408662 14.9165,0.408662 8.20407,0 14.916499,-0.14835 14.916499,-0.329669 z m 57.622657,-0.490008 c -0.56193,-0.44082 -1.38949,-0.921027 -1.83902,-1.067118 -0.44955,-0.14609 -2.19662,-1.043533 -3.88238,-1.994309 -7.749196,-4.370566 -15.137262,-8.377708 -15.421496,-8.364304 -0.314469,0.01483 -3.787374,5.533175 -6.227647,9.895551 l -1.31448,2.349857 14.853343,-0.0093 c 14.83113,-0.0093 14.85182,-0.01043 13.83168,-0.810582 z M 21.13804,66.756304 c 6.702746,-3.627741 9.73147,-5.24674 15.692989,-8.38869 3.259161,-1.717685 6.1827,-3.289906 6.496764,-3.493803 0.670434,-0.435271 1.136752,0.370168 -9.667305,-16.697111 -4.161839,-6.574494 -7.689074,-11.953633 -7.838304,-11.953633 -0.14923,0 -1.129361,1.425238 -2.178071,3.167205 -5.781753,9.603787 -8.012789,18.324555 -7.542371,29.481923 0.17723,4.20352 0.929774,9.852678 1.312511,9.852678 0.04761,0 1.723327,-0.885858 3.723787,-1.968569 z m 96.35315,1.253395 c 1.24761,-4.310466 1.50959,-15.214391 0.49999,-20.810424 -1.14063,-6.322302 -4.03741,-13.590783 -7.48723,-18.786573 -0.7996,-1.204301 -1.58199,-2.189635 -1.73863,-2.189635 -0.15666,0 -1.39315,1.793042 -2.7478,3.984541 -1.35463,2.19151 -5.34504,8.566093 -8.86757,14.165762 -3.52252,5.599669 -6.259852,10.318972 -6.082946,10.48734 0.602457,0.573415 25.248476,13.839881 25.733886,13.852045 0.26581,0.007 0.57645,-0.309708 0.6903,-0.703056 z m -51.8799,-6.780858 c 0.233031,-0.825712 0.283713,-0.8363 0.798013,-0.166549 0.687695,0.895577 1.408313,0.907393 2.368079,0.0388 0.69541,-0.629344 0.747343,-0.629344 0.747343,0 0,0.448988 0.343453,0.676342 1.021684,0.676342 0.749232,0 1.021674,-0.21796 1.021674,-0.817347 0,-1.053171 0.663877,-1.050356 1.228801,0.0058 0.358734,0.670307 0.591116,0.741771 1.255608,0.386154 0.627583,-0.335878 0.794132,-0.797145 0.723004,-2.0025 -0.171936,-2.914097 1.73475,-4.60179 5.944802,-5.261984 3.776347,-0.592193 3.875509,-0.792858 3.779833,-7.64861 -0.07542,-5.402642 -0.152694,-5.945787 -0.96996,-6.815739 -0.48842,-0.519896 -1.25021,-1.770534 -1.692849,-2.779198 -0.797677,-1.817646 -2.200568,-7.791133 -1.900301,-8.091411 0.08584,-0.08584 0.556676,0.643281 1.046231,1.620331 1.304355,2.603264 4.216298,7.293514 4.528196,7.293514 0.665129,0 0.736477,-3.055844 0.139847,-5.989947 -2.174992,-10.696125 -9.159168,-16.159273 -19.935213,-15.593676 -2.856499,0.149936 -3.911025,0.4175 -6.444277,1.635088 -6.101691,2.932748 -7.71053,4.739645 -9.816176,11.0246 -1.065462,3.180167 -1.207869,4.078119 -0.970748,6.121082 0.152821,1.316796 0.430394,2.394179 0.616822,2.394179 0.620644,0 3.159964,-4.657165 4.295535,-7.878074 0.616311,-1.748105 1.174724,-3.124202 1.24093,-3.057998 0.06614,0.06627 -0.144156,2.012925 -0.467465,4.326048 -0.603488,4.317753 -1.128642,5.77611 -2.96011,8.220183 -1.006775,1.343533 -1.056936,1.664988 -1.132373,7.255783 l -0.07889,5.849951 1.211981,1.019819 c 0.72539,0.610369 1.732618,1.02341 2.508806,1.028785 1.594717,0.01158 4.30354,1.214948 5.329696,2.368752 0.419922,0.472155 0.86028,1.739463 0.978567,2.816244 0.270207,2.459734 1.38992,3.473877 1.935973,1.753434 0.305955,-0.963994 0.967423,-1.073095 1.238834,-0.204337 0.105302,0.337152 0.272209,0.874586 0.370851,1.194292 0.262582,0.851128 1.741271,0.327641 2.037286,-0.721232 z m -0.738586,-5.056976 c -0.820648,-0.82065 1.385041,-10.680567 2.469072,-11.037297 0.494584,-0.162749 1.900811,3.17953 2.5851,6.144216 0.474126,2.05412 0.535095,4.759548 0.108663,4.822612 -1.508797,0.223151 -4.963039,0.270299 -5.162869,0.07043 z m -9.565446,-7.092526 c -1.552897,-0.474878 -1.909557,-1.218955 -2.262395,-4.719881 -0.210001,-2.083671 -0.131227,-2.610912 0.471577,-3.156443 1.948319,-1.7632 7.549197,-2.493851 9.879488,-1.288808 1.728343,0.893757 2.208538,2.96296 1.30754,5.634295 -0.39088,1.158924 -1.143517,2.385814 -1.717477,2.799689 -1.235995,0.891268 -5.749679,1.321049 -7.678733,0.731148 z m 17.834991,-0.02317 c -1.481978,-0.543087 -2.886434,-3.831024 -2.719444,-6.366428 0.156064,-2.369572 1.266125,-3.270188 4.483895,-3.637923 1.91995,-0.21942 2.641286,-0.107735 4.210065,0.651668 2.414394,1.168782 3.271951,2.46606 3.170541,4.796222 -0.117651,2.703367 -0.848938,3.889989 -2.750131,4.4625 -1.970423,0.593353 -4.914141,0.636609 -6.394926,0.09395 z m -22.18042,8.8638 c -0.15589,-0.830971 -0.626158,-1.525987 -1.263218,-1.866927 -1.58289,-0.847142 -1.61945,-0.246503 -0.136429,2.240964 1.407155,2.360237 1.888474,2.231615 1.399647,-0.374037 z m 35.11811,-1.791814 c -0.351608,-0.351608 -1.558261,0.943027 -2.110685,2.264597 -0.981255,2.347458 -0.562166,2.415389 0.885255,0.143506 0.777729,-1.220727 1.329168,-2.304364 1.22543,-2.408103 z m 7.616835,-11.427133 c 2.747826,-4.43128 6.609236,-10.623815 8.580926,-13.761178 1.97168,-3.137362 3.51182,-5.777339 3.42254,-5.86662 -0.0893,-0.08932 -3.80567,1.7629 -8.258642,4.115954 l -8.096311,4.278286 -0.254949,2.201344 c -0.140229,1.210741 -0.570067,3.393297 -0.955213,4.850125 -0.573347,2.168735 -0.647904,3.556313 -0.41142,7.656534 0.158868,2.754268 0.443682,4.912078 0.632924,4.795111 0.189254,-0.116956 2.592318,-3.838264 5.340145,-8.269544 z m -46.887991,6.348784 c -0.351088,-1.961489 -0.349813,-2.082964 0.05549,-5.295404 0.221411,-1.754838 0.0534,-3.548297 -0.678556,-7.241409 l -0.972856,-4.908881 -7.953476,-4.08281 c -4.374413,-2.24554 -8.003347,-4.032928 -8.064304,-3.971983 -0.116469,0.116481 13.185376,21.397358 15.683907,25.091814 1.775769,2.625727 2.348304,2.746981 1.929783,0.408673 z M 46.01055,28.777227 c 0.503875,-2.760732 2.990021,-7.323807 5.14723,-9.447259 2.50306,-2.463894 8.574145,-5.612517 12.032548,-6.24039 5.08011,-0.922307 12.828531,0.608458 16.700877,3.299393 3.548794,2.466107 6.458453,6.560757 8.040683,11.315357 0.476859,1.432987 0.989954,2.604724 1.140204,2.60389 0.150261,-8.22e-4 0.824901,-0.336549 1.499205,-0.74601 0.674314,-0.409462 4.21442,-2.274687 7.866928,-4.14495 3.652505,-1.870263 6.640915,-3.533085 6.640915,-3.695151 0,-0.162076 -1.42525,-1.654816 -3.1672,-3.317198 C 83.045805,0.40061117 51.595043,0.5509996 32.316191,18.737705 c -1.562687,1.474147 -2.841243,2.832265 -2.841243,3.018044 0,0.185767 1.517194,1.153479 3.371541,2.150443 5.187694,2.789136 12.305681,6.403556 12.610687,6.403556 0.150515,0 0.399533,-0.689642 0.553374,-1.532521 z"
       id="path24-2"
       sodipodi:nodetypes="csscssssssssssssssscsssssssssssscssssscsscsscscssssscssssscssssssscscssssssssssscccsssssssccsssssssssssssssssssssssssssssssscsssssssssssssscsssssssccssscssssssssssssssssssssssssscsscsscsscsssssscssssscssssssssssssssssssssssssssssssssssssssssssssssssssssscccssssssscssssssssssssssscsssssssssssssssssssssssssssscsssscsccsssssssssssssssscscssssscsssssssssssssssssssscscsssssccssssssssssssssssssssssssssssssssscssssssssscssssssssssssssssssss" />
  </g>
</svg>
