<?xml version="1.0" encoding="UTF-8" standalone="no"?>
<svg
   xmlns:dc="http://purl.org/dc/elements/1.1/"
   xmlns:cc="http://creativecommons.org/ns#"
   xmlns:rdf="http://www.w3.org/1999/02/22-rdf-syntax-ns#"
   xmlns:svg="http://www.w3.org/2000/svg"
   xmlns="http://www.w3.org/2000/svg"
   xmlns:sodipodi="http://sodipodi.sourceforge.net/DTD/sodipodi-0.dtd"
   xmlns:inkscape="http://www.inkscape.org/namespaces/inkscape"
   width="512"
   height="512"
   viewBox="0 0 135.46666 135.46666"
   version="1.1"
   id="svg273"
   inkscape:version="1.0.2-2 (e86c870879, 2021-01-15)"
   sodipodi:docname="eco.svg">
  <defs
     id="defs267" />
  <sodipodi:namedview
     id="base"
     pagecolor="#ffffff"
     bordercolor="#666666"
     borderopacity="1.0"
     inkscape:pageopacity="0.0"
     inkscape:pageshadow="2"
     inkscape:zoom="0.35"
     inkscape:cx="-150"
     inkscape:cy="560"
     inkscape:document-units="mm"
     inkscape:current-layer="layer1"
     inkscape:document-rotation="0"
     showgrid="false"
     inkscape:window-width="1920"
     inkscape:window-height="1009"
     inkscape:window-x="-8"
     inkscape:window-y="-8"
     inkscape:window-maximized="1"
     units="px" />
  <metadata
     id="metadata270">
    <rdf:RDF>
      <cc:Work
         rdf:about="">
        <dc:format>image/svg+xml</dc:format>
        <dc:type
           rdf:resource="http://purl.org/dc/dcmitype/StillImage" />
        <dc:title></dc:title>
      </cc:Work>
    </rdf:RDF>
  </metadata>
  <g
     inkscape:label="Layer 1"
     inkscape:groupmode="layer"
     id="layer1">
    <path
       style="fill:#b198d3;stroke-width:0.247018;fill-opacity:1"
       d="m 109.13142,123.83905 c 5.91002,-6.11686 9.51775,-11.11855 12.72215,-17.63776 2.93595,-5.97309 4.53032,-11.071466 5.60044,-17.908805 0.63419,-4.052049 0.63463,-14.541536 7.4e-4,-18.40284 C 125.17168,55.981503 119.37741,44.909707 109.22248,35.050963 100.20785,26.299268 89.402823,20.89614 77.142594,19.009196 71.243328,18.101253 62.314793,18.27206 56.393084,19.406144 45.675442,21.458709 35.585504,26.814864 27.18248,34.912327 21.655922,40.237928 17.729424,45.592161 14.39365,52.351368 10.148249,60.95375 8.1859658,69.582886 8.1866007,79.646855 c 6.255e-4,9.647426 1.9100103,17.819964 6.2040523,26.554435 3.278684,6.66912 6.657199,11.43364 11.978167,16.89206 1.772544,1.81834 2.944917,3.16298 2.60527,2.9881 -1.179049,-0.60709 -3.537229,-2.55773 -5.667637,-4.68813 C 13.887156,111.97402 7.3632023,99.332237 4.9879459,85.896655 4.3326349,82.189886 4.0712517,73.369298 4.4944764,69.244096 5.5061935,59.382802 9.0292128,49.4893 14.403285,41.417725 c 2.764189,-4.15167 4.822699,-6.639735 8.632132,-10.433412 8.926397,-8.8895 18.042681,-14.169376 29.158359,-16.887638 6.158053,-1.505909 8.441161,-1.757482 15.932663,-1.755607 7.120821,0.0018 9.109899,0.201965 14.903404,1.499879 4.621833,1.035428 8.877112,2.566907 13.997699,5.037782 5.261458,2.538851 10.120008,6.080646 15.408808,11.232751 10.82605,10.546223 16.89563,22.254299 19.08469,36.81395 0.44822,2.981244 0.45007,13.797001 0.003,16.797222 -1.7265,11.582638 -6.08418,22.180618 -12.84848,31.247778 -3.34181,4.4795 -9.25882,10.20389 -12.38471,11.98154 -0.2038,0.11589 1.07452,-1.28492 2.8407,-3.11292 z m -18.513997,-3.89102 c 0.129062,-0.11537 1.570082,-1.26975 3.202259,-2.56529 4.428317,-3.51497 7.316008,-6.70518 10.029448,-11.08014 3.95767,-6.381077 6.25751,-13.444168 6.92137,-21.256423 0.83718,-9.851687 -2.11329,-20.608665 -7.93361,-28.924879 -0.90892,-1.298682 -3.044884,-3.736273 -4.940358,-5.638001 -6.34124,-6.362143 -13.366488,-10.195696 -21.784627,-11.887473 -2.373837,-0.477066 -3.584609,-0.563023 -7.985466,-0.566914 -4.432123,-0.0039 -5.591183,0.07727 -7.960837,0.557614 -12.401644,2.513902 -23.539037,10.889844 -29.798938,22.410474 -6.837292,12.583252 -7.036011,27.724838 -0.538143,41.004982 2.988994,6.10882 6.417317,10.46349 12.114007,15.3873 1.701357,1.47052 1.090542,1.42335 -1.302527,-0.1006 C 28.43393,109.51567 20.822497,94.877181 20.822497,79.175207 c 0,-21.221206 15.289648,-41.13424 35.503526,-46.23932 13.596591,-3.433864 28.267012,-0.715158 38.952501,7.218633 11.640626,8.642964 18.641856,21.239969 19.937296,35.872282 0.88293,9.972828 -2.019,21.011571 -7.80255,29.680448 -3.47262,5.20507 -7.32242,9.02114 -12.378652,12.27022 -2.047195,1.31551 -5.31545,2.77352 -4.417195,1.97056 z m -3.95727,-14.15736 c 0.267667,-0.34477 1.160003,-1.45756 1.982962,-2.47288 2.487878,-3.06934 4.516251,-7.474222 5.44019,-11.814071 0.561511,-2.637486 0.632261,-8.713074 0.130874,-11.239318 -0.399856,-2.014714 -1.5469,-5.396829 -2.42949,-7.163522 C 88.347077,66.219803 81.624049,60.581548 74.541525,58.639925 71.85687,57.903947 66.237529,57.696494 63.418061,58.229272 c -4.993336,0.943562 -9.402726,3.332508 -13.315285,7.21405 -6.106611,6.058187 -8.808575,12.950075 -8.462803,21.585979 0.264193,6.598335 2.654023,12.819951 6.594619,17.168249 0.837907,0.9246 1.459486,1.74507 1.381287,1.82327 -0.268114,0.26812 -3.508399,-2.15781 -5.11492,-3.82942 -5.404376,-5.623339 -8.100944,-13.252595 -7.388832,-20.904814 0.739056,-7.941844 4.081953,-15.107015 9.64144,-20.665513 2.765188,-2.764696 5.228335,-4.510116 8.71499,-6.175558 8.464829,-4.043324 17.944372,-3.845665 26.403636,0.550547 9.705757,5.044003 16.295889,15.017831 17.239574,26.09121 0.433765,5.08981 -0.418332,9.600205 -2.691194,14.245226 -2.200316,4.496793 -5.773013,8.580342 -9.171461,10.482872 l -1.075613,0.60216 z m -22.555197,-2.7875 c -5.903075,-1.91151 -9.688019,-7.176197 -9.688019,-13.475595 0,-3.869868 1.415812,-7.346224 4.074812,-10.005219 6.119103,-6.119113 16.309506,-5.169269 21.081175,1.964966 1.592974,2.3817 2.275173,4.393091 2.433747,7.175689 0.389316,6.831633 -3.940008,12.875339 -10.434898,14.567049 -2.183857,0.56882 -5.302146,0.47406 -7.466817,-0.22689 z"
       id="path3121" />
  </g>
</svg>
