<?xml version="1.0" encoding="UTF-8" standalone="no"?>
<svg
   xmlns:dc="http://purl.org/dc/elements/1.1/"
   xmlns:cc="http://creativecommons.org/ns#"
   xmlns:rdf="http://www.w3.org/1999/02/22-rdf-syntax-ns#"
   xmlns:svg="http://www.w3.org/2000/svg"
   xmlns="http://www.w3.org/2000/svg"
   xmlns:sodipodi="http://sodipodi.sourceforge.net/DTD/sodipodi-0.dtd"
   xmlns:inkscape="http://www.inkscape.org/namespaces/inkscape"
   width="512"
   height="512"
   viewBox="0 0 135.46666 135.46667"
   version="1.1"
   id="svg273"
   inkscape:version="1.0.2-2 (e86c870879, 2021-01-15)"
   sodipodi:docname="mens.svg">
  <defs
     id="defs267" />
  <sodipodi:namedview
     id="base"
     pagecolor="#ffffff"
     bordercolor="#666666"
     borderopacity="1.0"
     inkscape:pageopacity="0.0"
     inkscape:pageshadow="2"
     inkscape:zoom="0.35"
     inkscape:cx="-150"
     inkscape:cy="560"
     inkscape:document-units="mm"
     inkscape:current-layer="layer1"
     inkscape:document-rotation="0"
     showgrid="false"
     inkscape:window-width="1920"
     inkscape:window-height="1009"
     inkscape:window-x="-8"
     inkscape:window-y="-8"
     inkscape:window-maximized="1"
     units="px" />
  <metadata
     id="metadata270">
    <rdf:RDF>
      <cc:Work
         rdf:about="">
        <dc:format>image/svg+xml</dc:format>
        <dc:type
           rdf:resource="http://purl.org/dc/dcmitype/StillImage" />
        <dc:title />
      </cc:Work>
    </rdf:RDF>
  </metadata>
  <g
     inkscape:label="Layer 1"
     inkscape:groupmode="layer"
     id="layer1">
    <path
       style="fill:#b198d3;stroke-width:0.509897;fill-opacity:1"
       d="m 62.753086,133.73712 c -4.199193,-0.69614 -7.46846,-2.42868 -12.526177,-6.63821 -10.118773,-8.42186 -12.2984,-12.40144 -13.221547,-24.1399 -0.701643,-8.921903 -0.647919,-8.743818 -3.064891,-10.160243 -2.349834,-1.377096 -4.828452,-4.815689 -5.903291,-8.18963 -0.888386,-2.788665 -0.883197,-8.315768 0.01012,-10.315474 0.663341,-1.48563 0.628175,-1.967909 -0.371924,-5.098954 -4.081123,-12.776993 -5.493688,-29.283201 -3.2473,-37.945324 1.75843,-6.780533 4.149834,-10.794111 9.68068,-16.247514 C 39.603049,9.5845299 44.839343,6.4553055 52.27888,4.1433689 63.790447,0.56597681 78.77635,1.1228801 89.190645,5.515074 c 16.031545,6.761266 24.348525,16.917604 25.932165,31.66729 0.8525,7.939898 -0.74727,20.908114 -3.75297,30.42285 -1.27435,4.03403 -1.2853,4.188729 -0.43068,6.083949 1.4668,3.252761 0.76051,10.395606 -1.4568,14.733092 -1.02991,2.014724 -4.3145,5.150424 -5.9746,5.703786 -0.56205,0.18735 -0.90708,2.381098 -1.97728,12.571779 -0.57654,5.49006 -2.24994,9.58823 -5.517372,13.51211 -2.911464,3.49641 -10.58388,9.85353 -13.979011,11.58258 -4.595023,2.34011 -12.242334,3.1114 -19.280577,1.94461 z m 14.728612,-4.75725 c 3.314522,-0.8821 7.021087,-3.35046 11.966658,-7.96907 5.587664,-5.21827 6.859118,-8.05778 8.216586,-18.34999 0.9941,-7.537127 1.028168,-7.177647 -0.643077,-6.786774 -2.025766,0.473808 -2.389423,1.022386 -3.682789,5.555274 -1.107649,3.88209 -3.496523,9.37459 -4.716811,10.84493 -0.311955,0.37588 -1.022444,0.92706 -1.578885,1.22487 -0.960091,0.51382 -0.995011,0.41969 -0.684588,-1.84517 0.314239,-2.29254 0.282123,-2.37351 -0.814859,-2.05467 -1.318978,0.3834 -2.926641,2.07877 -2.926641,3.08631 0,0.62054 -1.478504,1.74609 -2.293624,1.74609 -0.176596,0 -0.249052,-0.631 -0.161,-1.40222 0.172535,-1.51117 0.01561,-1.65715 -1.781556,-1.65715 -0.969211,0 -1.261553,0.3823 -1.657167,2.16705 -0.609211,2.74838 -1.80458,2.87411 -2.423982,0.25495 -0.365405,-1.54505 -0.684385,-1.91212 -1.66172,-1.91212 -0.936444,0 -1.306417,0.37396 -1.638724,1.65639 -0.236911,0.91426 -0.81457,1.7306 -1.289318,1.82202 -0.693217,0.13356 -0.860115,-0.23736 -0.860115,-1.91133 v -2.07696 h -2.00728 c -1.890783,0 -2.016545,0.096 -2.167052,1.65297 -0.229742,2.37669 -1.717771,2.51945 -2.151702,0.20643 -0.331165,-1.76527 -1.068928,-2.3693 -2.893802,-2.3693 -0.777887,0 -0.978086,0.3653 -0.978086,1.78464 0,1.21392 -0.234974,1.78464 -0.734756,1.78464 -0.900629,0 -1.37198,-0.71837 -1.779822,-2.71251 -0.245367,-1.19968 -0.731837,-1.67199 -2.270888,-2.20483 -1.918389,-0.66418 -1.951951,-0.65467 -1.633679,0.46245 0.17872,0.6273 0.473664,1.82579 0.655449,2.6633 0.32784,1.51038 0.320497,1.5162 -0.904589,0.717 -1.647757,-1.07493 -3.533279,-4.6038 -6.168806,-11.54536 -2.037662,-5.366858 -2.267188,-5.736339 -3.563517,-5.736339 -0.762074,0 -1.481308,0.172115 -1.598297,0.382432 -0.387317,0.696368 0.606567,8.994447 1.48099,12.365007 1.620267,6.24548 3.839801,9.38835 10.48363,14.84495 4.102309,3.36923 5.765966,4.37576 8.838719,5.34753 2.833255,0.89606 12.606237,0.87443 16.0251,-0.0354 z m -3.321705,-22.06916 c -0.03888,-1.91459 0.08846,-2.16705 1.092719,-2.16705 1.178675,0 1.755727,0.86956 1.755727,2.64573 0,0.73214 0.2347,0.94259 0.806548,0.72313 0.443601,-0.17022 1.190976,-0.30949 1.660838,-0.30949 0.701904,0 0.821133,-0.41689 0.6684,-2.33718 -0.175425,-2.20576 -0.118376,-2.3276 1.016128,-2.16705 0.849823,0.12026 1.344922,0.65562 1.689861,1.82727 0.520769,1.76891 0.983376,1.94495 3.048212,1.15989 1.226517,-0.46632 1.307935,-0.71253 1.307935,-3.95507 0,-7.629661 2.442728,-10.478454 9.774253,-11.399028 5.691806,-0.714695 8.524866,-2.814089 9.869966,-7.313993 0.96947,-3.243264 0.95444,-6.06711 -0.0426,-7.995082 -0.43681,-0.844707 -1.11422,-3.356004 -1.50536,-5.580669 -0.39113,-2.224665 -1.65083,-7.948006 -2.79933,-12.718542 -1.52551,-6.336513 -2.0473,-9.498779 -1.93646,-11.735686 0.0834,-1.68408 0.37478,-3.117011 0.64736,-3.184265 0.73319,-0.180903 3.54598,7.688764 5.19591,14.53723 0.79389,3.295211 1.58909,5.991286 1.76712,5.991286 0.17802,0 0.56282,-0.975181 0.85511,-2.167067 2.6691,-10.884389 2.83995,-23.644081 0.41109,-30.70269 C 106.45901,21.389392 99.512147,14.603178 88.850216,9.9454547 81.715088,6.8284293 78.17808,6.1587577 68.850014,6.1587577 c -10.09134,0 -13.732213,0.8011574 -21.867381,4.8118153 -4.634208,2.284677 -5.911472,3.224995 -10.225037,7.527691 -5.236829,5.223632 -6.94681,8.011935 -8.3885,13.678272 -1.694934,6.661766 -1.589884,11.845173 0.497441,24.545634 1.196019,7.277193 1.426528,7.565213 2.4993,3.122778 2.20284,-9.122042 5.14895,-17.462931 6.061907,-17.162119 1.321753,0.435506 0.884021,5.79496 -1.158801,14.187578 -1.118678,4.595949 -2.184917,10.191895 -2.369419,12.435437 -0.232735,2.830089 -0.725998,4.848528 -1.610872,6.591665 -1.175857,2.31636 -1.231605,2.73072 -0.71403,5.307883 0.308776,1.537461 1.157125,3.811919 1.885233,5.05435 1.65575,2.825305 5.304573,4.704265 9.149923,4.711723 3.353836,0.0072 6.759705,1.718046 8.127233,4.084155 0.74408,1.287397 1.102504,3.04957 1.286414,6.32458 l 0.25495,4.53994 1.912116,0.6598 c 1.725606,0.59545 1.912103,0.57401 1.912103,-0.21983 0,-1.24498 1.439016,-3.14615 2.381343,-3.14615 0.650752,0 0.732401,0.40963 0.45301,2.27271 -0.336021,2.24082 -0.317159,2.27909 1.34433,2.72765 1.968312,0.53141 2.039584,0.49795 2.198792,-1.03252 0.06663,-0.63988 0.150319,-1.45023 0.186107,-1.80078 0.03585,-0.35056 0.494651,-0.63736 1.019698,-0.63736 0.719436,0 1.034976,0.50247 1.280762,2.03958 0.304584,1.90469 0.438166,2.03959 2.019783,2.03959 1.541869,0 1.693619,-0.13703 1.693619,-1.5297 0,-0.84133 0.120111,-1.64981 0.266961,-1.79663 0.482206,-0.48223 1.9426,0.35966 1.9426,1.11986 0,1.50114 1.074868,2.78022 2.201553,2.61983 0.952806,-0.13572 1.106435,-0.46995 1.068754,-2.32548 z M 63.893864,96.065172 c -2.665375,-1.072498 -2.191089,-7.859506 0.994722,-14.234929 2.272304,-4.547312 3.854933,-6.006592 5.537625,-5.106051 1.168774,0.625516 3.745605,4.875109 4.820517,7.949799 1.154465,3.302236 1.596938,9.60633 0.746204,10.631405 -0.683316,0.823344 -3.639413,0.981063 -5.358197,0.285866 -0.623347,-0.252117 -1.688242,-0.139045 -2.739233,0.290781 -1.953815,0.799119 -2.417969,0.820366 -4.001638,0.183129 z M 45.235405,81.298301 c -4.328236,-0.783798 -5.733619,-2.30682 -6.96586,-7.548909 -1.808237,-7.692407 2.504317,-11.941971 12.224267,-12.04572 5.240225,-0.05594 6.945133,0.753475 9.568721,4.542802 1.71225,2.473024 1.756941,2.660764 1.490327,6.26121 -0.330615,4.464896 -1.450333,6.644711 -4.077362,7.937657 -2.220184,1.092719 -8.49975,1.530307 -12.240093,0.85296 z m 39.422252,-0.03801 c -4.478353,-0.921196 -6.631269,-3.703357 -7.014901,-9.06521 -0.554012,-7.742966 3.745634,-11.032309 13.415127,-10.262921 6.649813,0.529109 9.918057,3.363318 9.912837,8.596402 -0.006,5.602812 -1.882271,9.089912 -5.448331,10.123558 -2.903081,0.841498 -8.269964,1.14189 -10.864732,0.608171 z M 61.929612,59.108008 c -5.197861,-1.402087 -8.386692,-3.201782 -11.748738,-6.630662 -1.79098,-1.826608 -3.256331,-3.666543 -3.256331,-4.08878 0,-1.406828 5.288631,-5.843091 9.433087,-7.912754 6.51389,-3.25292 13.560112,-4.128601 19.885959,-2.471362 5.857559,1.534541 15.55184,8.15948 15.55184,10.627893 0,1.008005 -4.959894,5.889227 -7.648438,7.527113 -0.981555,0.597981 -3.545998,1.678096 -5.69877,2.400263 -3.195264,1.071891 -4.834074,1.30688 -8.923187,1.279491 -2.754988,-0.0185 -6.172926,-0.347498 -7.595422,-0.731216 z m 11.18536,-4.017465 c 2.687199,-1.122797 3.893467,-3.064009 3.893467,-6.265705 0,-1.513612 -0.31596,-3.508216 -0.702121,-4.432433 -1.87565,-4.489063 -11.04523,-4.725426 -13.311406,-0.343118 -1.201396,2.323254 -1.020406,7.213683 0.330543,8.931137 2.073421,2.635917 6.333435,3.554165 9.789517,2.110104 z m -6.30447,-3.886024 c -1.114862,-1.114861 -1.340687,-3.54662 -0.478896,-5.156884 0.78257,-1.462244 2.687156,-2.047563 4.549754,-1.398257 2.691738,0.938338 3.388655,3.831648 1.500994,6.231435 -1.324196,1.683444 -4.053557,1.842001 -5.571852,0.323706 z m -7.8442,1.912117 c -0.750858,-2.737412 -0.865664,-4.868199 -0.377749,-7.011085 0.287341,-1.261987 0.353742,-2.463238 0.147573,-2.669436 -0.424637,-0.42468 -4.931189,2.483806 -6.414058,4.1396 -0.965366,1.077933 -0.962548,1.104874 0.25495,2.431253 1.312951,1.430387 5.452536,4.256935 6.234441,4.256935 0.258246,0 0.327927,-0.516274 0.154843,-1.147267 z m 23.67864,-0.310582 c 1.246796,-0.801808 2.824612,-2.065356 3.506265,-2.80786 l 1.239367,-1.350024 -1.494317,-1.571745 c -1.582151,-1.664134 -5.713484,-4.31517 -6.108722,-3.919932 -0.128783,0.128783 0.01691,0.954598 0.323851,1.835078 0.589106,1.689933 0.430606,6.87084 -0.256381,8.380015 -0.576069,1.265499 0.181554,1.111928 2.789937,-0.565532 z M 43.179184,34.09228 c -4.607989,-5.081754 -5.639308,-6.859826 -4.417026,-7.615237 0.796244,-0.492108 1.55284,0.165914 6.581158,5.723529 2.960983,3.272664 4.655007,5.550258 4.546647,6.1129 -0.390873,2.029611 -1.908142,1.075229 -6.710779,-4.221192 z m 45.684344,5.046935 c -1.302935,-0.525756 -0.516636,-1.81756 4.303693,-7.070606 3.640757,-3.967585 5.217431,-5.345072 5.991286,-5.234385 0.577615,0.08268 1.050223,0.519237 1.050223,0.970266 0,0.933684 -9.417938,11.666034 -10.197935,11.621198 -0.280447,-0.01604 -0.796706,-0.145029 -1.147267,-0.286473 z M 56.917655,31.415516 c -0.425518,-0.822881 -1.48362,-3.283301 -2.351308,-5.467597 -1.403894,-3.534088 -1.493218,-4.055855 -0.811087,-4.737985 0.596795,-0.596796 0.926746,-0.633595 1.489965,-0.166161 1.028024,0.853191 4.558022,9.471419 4.341014,10.598263 -0.29915,1.553374 -1.814684,1.424736 -2.668584,-0.22652 z m 11.395127,-0.479373 c -0.101031,-7.047422 0.142948,-14.721833 0.478767,-15.058664 0.218844,-0.219523 0.780459,-0.252348 1.248024,-0.07285 0.745698,0.286156 0.850098,1.352728 0.850098,8.684946 v 8.358739 h -1.274735 c -1.128231,0 -1.277886,-0.219755 -1.302154,-1.912102 z m 11.857012,1.300231 c -0.857643,-0.857643 -0.830137,-0.987885 1.251927,-5.928354 2.330032,-5.528852 2.909353,-6.241624 4.102901,-5.048062 0.817071,0.817071 0.768854,1.113807 -0.82554,5.080757 -2.545568,6.333507 -3.21719,7.207743 -4.529288,5.895659 z"
       id="path24-9"
       sodipodi:nodetypes="ssssscsssssssssssssssssssssssssssssssssscssssssssssssssssssssssssssssssssssssssssssssssssssssscsscsssssssssssssssssssssssssssssssssscsssssssssssssssssssssssssssssssssscsssssssssssssssssssssssscscssssssss" />
  </g>
</svg>
