<?xml version="1.0" encoding="UTF-8" standalone="no"?>
<svg
   xmlns:dc="http://purl.org/dc/elements/1.1/"
   xmlns:cc="http://creativecommons.org/ns#"
   xmlns:rdf="http://www.w3.org/1999/02/22-rdf-syntax-ns#"
   xmlns:svg="http://www.w3.org/2000/svg"
   xmlns="http://www.w3.org/2000/svg"
   xmlns:sodipodi="http://sodipodi.sourceforge.net/DTD/sodipodi-0.dtd"
   xmlns:inkscape="http://www.inkscape.org/namespaces/inkscape"
   width="512"
   height="512"
   viewBox="0 0 135.46666 135.46667"
   version="1.1"
   id="svg273"
   sodipodi:docname="tempus.svg"
   inkscape:version="1.0.2-2 (e86c870879, 2021-01-15)">
  <sodipodi:namedview
     pagecolor="#ffffff"
     bordercolor="#666666"
     borderopacity="1"
     objecttolerance="10"
     gridtolerance="10"
     guidetolerance="10"
     inkscape:pageopacity="0"
     inkscape:pageshadow="2"
     inkscape:window-width="1920"
     inkscape:window-height="1009"
     id="namedview15"
     showgrid="false"
     units="px"
     inkscape:zoom="0.47215208"
     inkscape:cx="-10.857228"
     inkscape:cy="561.25984"
     inkscape:window-x="-8"
     inkscape:window-y="-8"
     inkscape:window-maximized="1"
     inkscape:current-layer="svg273"
     inkscape:document-rotation="0" />
  <defs
     id="defs267" />
  <metadata
     id="metadata270">
    <rdf:RDF>
      <cc:Work
         rdf:about="">
        <dc:format>image/svg+xml</dc:format>
        <dc:type
           rdf:resource="http://purl.org/dc/dcmitype/StillImage" />
        <dc:title />
      </cc:Work>
    </rdf:RDF>
  </metadata>
  <g
     id="layer1"
     transform="matrix(1.2160311,0,0,1.2160311,-56.885482,-118.16582)"
     style="fill:#b198d3;fill-opacity:1">
    <path
       style="fill:#b198d3;stroke-width:0.352778;fill-opacity:1"
       d="m 70.213859,206.45671 c -0.52927,-0.52926 -0.67211,-1.01805 -0.5413,-1.85209 0.0977,-0.62318 0.35623,-2.28373 0.57439,-3.69009 0.43185,-2.78374 1.13351,-3.70167 3.17163,-4.14932 0.84745,-0.18613 1.00759,-0.37142 0.85955,-0.99453 -0.52247,-2.19937 -0.7592,-7.43479 -0.49434,-10.93242 0.8838,-11.67086 5.31463,-18.94708 16.19908,-26.60176 4.89017,-3.43911 5.64942,-4.21012 5.88011,-5.97124 0.26563,-2.02773 -0.87435,-3.39062 -5.35457,-6.40169 -5.69653,-3.82854 -8.42518,-6.15649 -10.54944,-9.00031 -3.56583,-4.77368 -5.44691,-9.76081 -6.15601,-16.32083 -0.36575,-3.38358 -0.10853,-9.49245 0.50213,-11.92551 0.21362,-0.85114 0.14373,-0.92453 -0.88057,-0.92453 -2.30077,0 -3.31545,-2.18629 -3.3564,-7.23195 l -0.0172,-2.11666 34.197521,-0.09 c 27.1254,-0.0714 34.25539,0.002 34.4774,0.35278 0.25954,0.4106 0.21251,1.34592 -0.2533,5.04033 -0.27534,2.18389 -1.30513,3.61097 -2.80931,3.89316 -0.98439,0.18467 -1.22269,0.3688 -1.05195,0.81289 0.55471,1.44273 0.94612,6.92659 0.74602,10.45191 -0.50221,8.84744 -3.48696,15.92465 -9.00691,21.35638 -1.28908,1.26851 -4.17205,3.52905 -6.40655,5.02343 -5.01497,3.35389 -6.32428,4.6485 -6.54766,6.47405 -0.2541,2.077 0.67275,3.16214 5.54662,6.49401 9.39264,6.42095 13.48292,11.89884 15.73251,21.0698 0.54159,2.20781 0.72857,10.06006 0.37924,15.9242 -0.0888,1.48983 -0.0423,1.56985 1.14219,1.96804 1.60335,0.53897 2.01,1.44142 2.53983,5.6364 0.41085,3.25278 0.39783,3.46764 -0.23812,3.93265 -0.56406,0.41245 -6.07275,0.49187 -34.11912,0.49187 -33.184811,0 -33.452091,-0.006 -34.165481,-0.71902 z m 65.780051,-3.7789 c -0.13535,-0.92164 -0.37927,-2.03289 -0.54205,-2.46945 l -0.29598,-0.79375 h -30.65719 c -24.097531,0 -30.734661,0.0944 -31.019181,0.44097 -0.19909,0.24254 -0.47494,1.35379 -0.61301,2.46945 l -0.25103,2.02847 h 31.812251 31.81225 z m -53.635621,-6.3737 c 0.098,-0.15856 -0.0805,-0.99199 -0.39656,-1.85208 -0.42733,-1.16275 -0.5728,-2.7852 -0.56721,-6.32631 0.007,-4.15863 0.12933,-5.16508 0.96831,-7.93751 0.52844,-1.74624 1.07985,-3.29589 1.22534,-3.44365 0.14549,-0.14778 0.19539,2.88182 0.11087,6.73242 -0.15571,7.09459 0.0362,8.52929 1.14076,8.52929 0.75866,0 4.59266,-2.681 9.55279,-6.67998 2.52236,-2.0336 5.50767,-4.25971 6.634021,-4.94692 1.80326,-1.1002 2.15078,-1.50237 2.9088,-3.36615 1.06133,-2.60958 1.0614,-2.59414 -0.018,-4.05694 -1.18847,-1.61089 -1.11209,-2.47998 0.3743,-4.25909 2.63998,-3.15986 2.96326,-5.15209 1.19334,-7.35449 -1.44565,-1.79894 -2.06763,-4.01069 -2.46404,-8.76235 -0.18225,-2.18448 -0.56156,-4.52268 -0.8429,-5.19601 -0.80923,-1.93682 -3.528621,-4.57002 -7.939831,-7.68823 -5.70567,-4.03326 -8.79901,-7.23948 -10.62572,-11.01346 -2.18859,-4.52163 -3.1808,-11.04895 -1.79248,-11.79196 1.1571,-0.61926 1.7669,0.26762 2.16511,3.14892 0.42684,3.08834 1.24629,5.7738 1.93668,6.34677 0.26764,0.22212 1.94502,0.63861 3.72751,0.92554 1.7825,0.28693 3.81701,0.73969 4.52114,1.00613 0.70413,0.26644 2.78836,1.07189 4.63163,1.78989 3.905031,1.5211 7.992601,1.98117 10.836591,1.21967 2.48003,-0.66404 7.15507,-2.5245 7.15507,-2.84741 0,-0.15353 -0.332,-0.38452 -0.73776,-0.5133 -0.70513,-0.22381 -1.73168,-2.06527 -1.73168,-3.10638 0,-0.44093 4.15748,-6.93915 5.00284,-7.81952 0.62417,-0.65002 -0.13497,1.68161 -1.57868,4.84872 l -1.40617,3.08483 1.00648,1.50128 c 0.55358,0.82571 1.03702,1.55242 1.07431,1.61493 0.0373,0.0625 1.64825,-0.37407 3.57988,-0.97015 1.93164,-0.59608 3.69288,-1.08378 3.9139,-1.08378 0.70548,0 0.43709,1.06457 -0.91899,3.64517 -1.72032,3.2738 -5.41337,6.96943 -10.69862,10.70606 -6.9863,4.9393 -8.2888,6.94443 -8.20826,12.63628 0.055,3.88765 0.5315,5.63392 2.28156,8.36112 1.27804,1.9917 1.20491,2.39712 -1.06641,5.91131 -1.97937,3.06248 -2.10887,3.70603 -0.96009,4.7707 1.18791,1.10091 1.16248,1.88575 -0.13564,4.18588 -1.36123,2.41194 -1.34701,2.9347 0.0882,3.24378 1.93672,0.41707 2.8121,1.03374 7.69465,5.4206 2.90925,2.61389 5.84228,4.88709 7.64939,5.92857 5.20125,2.99758 5.19426,2.99179 5.31343,4.41247 l 0.1082,1.28952 h 2.24377 c 1.59664,0 2.29842,-0.14229 2.43311,-0.49333 0.10414,-0.27133 0.37387,-2.2061 0.59947,-4.29948 0.74521,-6.91565 -0.28659,-13.38626 -3.03861,-19.05579 -2.01098,-4.1428 -5.70484,-7.99887 -11.22063,-11.71323 -6.6446,-4.47453 -7.88183,-6.02341 -7.5305,-9.4274 0.25457,-2.46668 1.65523,-4.41976 4.71964,-6.58108 6.5944,-4.65104 8.21898,-5.94359 10.22494,-8.1353 5.30656,-5.79794 7.89164,-14.83492 6.85797,-23.97449 -0.2232,-1.97357 -0.50049,-3.94647 -0.61613,-4.38423 l -0.21032,-0.79593 -27.03396,0.0904 -27.033821,0.0904 -0.43401,2.11666 c -0.60861,2.96818 -0.59199,10.05291 0.031,13.22917 0.66443,3.38736 1.93543,6.86336 3.44492,9.42126 1.79254,3.03753 6.31253,7.40954 10.65819,10.30925 2.10229,1.40278 4.43458,3.10363 5.18287,3.77966 2.59768,2.34687 3.15482,6.09301 1.31879,8.86746 -0.54017,0.81626 -2.6102,2.52269 -5.42247,4.47004 -7.57966,5.24852 -11.20482,9.35133 -13.48347,15.26005 -1.78599,4.63125 -2.27337,7.87753 -2.09816,13.97537 0.0846,2.94493 0.33552,5.79097 0.55755,6.32455 0.38145,0.91668 0.52938,0.97014 2.68466,0.97014 1.25453,0 2.36114,-0.12973 2.45913,-0.28828 z m 53.141661,-92.33885 c 0.18919,-0.4977 0.34403,-1.37083 0.34403,-1.94028 v -1.03537 H 104.30395 72.763899 l 0.17186,1.49931 c 0.0945,0.82461 0.23319,1.69774 0.30814,1.94027 0.10766,0.34839 6.6217,0.44098 31.024141,0.44098 h 30.88784 z"
       id="path24-93" />
  </g>
</svg>
