<?xml version="1.0" encoding="UTF-8" standalone="no"?>
<svg
   xmlns:dc="http://purl.org/dc/elements/1.1/"
   xmlns:cc="http://creativecommons.org/ns#"
   xmlns:rdf="http://www.w3.org/1999/02/22-rdf-syntax-ns#"
   xmlns:svg="http://www.w3.org/2000/svg"
   xmlns="http://www.w3.org/2000/svg"
   xmlns:sodipodi="http://sodipodi.sourceforge.net/DTD/sodipodi-0.dtd"
   xmlns:inkscape="http://www.inkscape.org/namespaces/inkscape"
   width="512"
   height="512"
   viewBox="0 0 135.46666 135.46666"
   version="1.1"
   id="svg273"
   inkscape:version="1.0.2-2 (e86c870879, 2021-01-15)"
   sodipodi:docname="umbra.svg">
  <defs
     id="defs267" />
  <sodipodi:namedview
     id="base"
     pagecolor="#ffffff"
     bordercolor="#666666"
     borderopacity="1.0"
     inkscape:pageopacity="0.0"
     inkscape:pageshadow="2"
     inkscape:zoom="0.35"
     inkscape:cx="-150"
     inkscape:cy="560"
     inkscape:document-units="mm"
     inkscape:current-layer="layer1"
     inkscape:document-rotation="0"
     showgrid="false"
     inkscape:window-width="1920"
     inkscape:window-height="1009"
     inkscape:window-x="-8"
     inkscape:window-y="-8"
     inkscape:window-maximized="1"
     units="px" />
  <metadata
     id="metadata270">
    <rdf:RDF>
      <cc:Work
         rdf:about="">
        <dc:format>image/svg+xml</dc:format>
        <dc:type
           rdf:resource="http://purl.org/dc/dcmitype/StillImage" />
        <dc:title />
      </cc:Work>
    </rdf:RDF>
  </metadata>
  <g
     inkscape:label="Layer 1"
     inkscape:groupmode="layer"
     id="layer1">
    <path
       style="fill:#b198d3;stroke-width:0.408867;fill-opacity:1"
       d="m 69.918117,133.61658 c -0.01426,-0.17031 -0.615298,-2.83818 -1.335646,-5.92857 -1.278856,-5.48661 -1.307877,-5.82588 -1.232438,-14.40954 0.08774,-9.98748 -0.371538,-13.710081 -2.400794,-19.459471 -1.852696,-5.249227 -4.934561,-11.175641 -11.355279,-21.836063 -0.681047,-1.130783 -1.078999,0.04995 -1.029614,3.054895 0.0423,2.570204 0.246923,3.35337 1.486118,5.687024 0.790374,1.488494 1.288625,2.70634 1.107208,2.70634 -0.618334,0 -3.280504,-3.444769 -4.347357,-5.625308 -0.706151,-1.443375 -1.131211,-3.113668 -1.263765,-4.966352 -0.222144,-3.104847 0.162769,-4.60157 2.849139,-11.078274 0.886096,-2.136324 2.227062,-6.033945 2.979908,-8.661381 1.704078,-5.947044 2.415294,-7.457234 4.435261,-9.417554 2.051242,-1.990638 5.15908,-2.952138 8.639267,-2.672775 2.884384,0.231532 4.540747,0.981122 6.502329,2.94267 2.381486,2.381509 3.191286,4.597908 8.89391,24.34206 1.604231,5.554308 1.003363,7.225644 -4.700699,13.074904 -3.882601,3.981417 -5.472182,5.979577 -5.073824,6.377923 0.08646,0.08646 1.711263,-0.877438 3.610701,-2.142015 8.831104,-5.879463 11.835258,-9.3474 11.835258,-13.662363 0,-2.643951 -9.180737,-30.495961 -11.993901,-36.386446 -1.010386,-2.115682 -1.779343,-3.904969 -1.708772,-3.97619 0.07058,-0.07116 0.779341,0.52157 1.575036,1.317276 3.035018,3.034995 6.051342,10.339046 11.371105,27.535072 0.226108,0.730849 0.604924,1.328819 0.841822,1.328819 0.757993,0 0.09666,-8.052782 -1.091226,-13.288171 -1.535421,-6.767008 -2.940363,-9.898419 -7.597437,-16.933537 -4.294287,-6.487079 -6.092278,-8.315192 -9.886564,-10.052278 -2.102759,-0.962683 -2.406427,-1.002239 -3.855654,-0.502296 -2.491509,0.859497 -8.703458,5.13625 -11.389631,7.841431 -4.350417,4.381188 -5.9535,8.616169 -5.883103,15.541704 0.03558,3.508547 0.102802,3.897065 0.462275,2.673946 0.231335,-0.78706 0.856739,-2.902952 1.389818,-4.701963 1.080714,-3.647186 2.599735,-6.499141 4.845317,-9.097277 2.087745,-2.415514 2.573479,-2.174061 0.822468,0.408869 -1.45041,2.139546 -4.520997,10.997376 -6.909472,19.932244 -0.571105,2.136325 -1.898,6.368095 -2.948708,9.403936 -1.626796,4.700467 -1.939052,6.113754 -2.103861,9.522246 -0.185508,3.837377 -0.141512,4.107341 1.066969,6.541862 0.693274,1.396632 2.600848,4.064853 4.239095,5.929381 5.638266,6.417155 6.90837,8.065034 8.101686,10.511411 1.341742,2.750579 2.216503,5.855531 2.591843,9.199491 l 0.252394,2.24877 -0.756926,-2.04911 c -1.89187,-5.121426 -4.514339,-9.054594 -8.856909,-13.283386 -3.496135,-3.40454 -7.755466,-8.518442 -8.162122,-9.799674 -0.145025,-0.456979 -0.46296,-0.830858 -0.706487,-0.830858 -0.618983,0 -0.08832,7.572079 0.6842,9.761415 0.329095,0.932827 1.878784,3.80933 3.443725,6.392237 3.950715,6.520636 5.009385,10.233106 4.196479,14.715786 -0.203901,1.12437 -0.392388,1.62769 -0.418837,1.11846 -0.09376,-1.80624 -2.819144,-7.76403 -5.519005,-12.06504 -3.687334,-5.874017 -5.041002,-8.912872 -5.596449,-12.563257 -0.256647,-1.686577 -0.521222,-3.125084 -0.587992,-3.196663 -0.320345,-0.343537 -4.816169,5.802912 -5.803248,7.933916 -0.992155,2.141992 -1.121359,2.907819 -1.132393,6.711006 -0.007,2.361208 0.149475,4.933458 0.347408,5.716118 0.323788,1.2805 0.294013,1.3684 -0.297282,0.87768 -1.037089,-0.8607 -2.600848,-4.41408 -3.801483,-8.638133 -1.083008,-3.81028 -1.105655,-4.129455 -1.189439,-16.763525 -0.06108,-9.214545 0.06363,-13.577351 0.438517,-15.332506 0.288171,-1.349264 0.650751,-4.017113 0.805754,-5.92857 0.42039,-5.184601 1.777744,-15.018662 2.336471,-16.927777 0.485316,-1.65824 0.49329,-1.635037 0.765514,2.232926 0.151318,2.149722 0.405682,5.737522 0.565264,7.972893 0.272259,3.813525 1.221276,9.902604 1.602875,10.284202 0.09434,0.09434 0.288334,-1.81854 0.431156,-4.250801 0.399864,-6.809925 1.110802,-14.600926 1.371621,-15.031469 0.129124,-0.213127 0.366381,-3.800938 0.527191,-7.972882 0.160845,-4.171954 0.485653,-8.077492 0.721809,-8.678962 0.388958,-0.990707 2.745745,-4.484839 4.986912,-7.393527 0.477806,-0.620131 1.742266,-1.503294 2.80993,-1.96258 1.126228,-0.484493 2.550432,-1.563979 3.392498,-2.571329 0.798233,-0.95494 2.531413,-2.31256 3.851482,-3.016926 1.320104,-0.704366 2.947028,-1.852487 3.615407,-2.5513713 0.740944,-0.77474 2.062728,-1.5170745 3.386593,-1.9019295 1.575522,-0.4580222 2.707718,-1.1675804 4.125873,-2.5857233 2.302373,-2.3023845 4.203931,-3.0484742 7.831392,-3.0727319 2.041588,-0.013676 3.084125,0.2089895 4.497527,0.9605032 1.011951,0.5380506 3.863791,1.976615 6.337439,3.1968136 4.497737,2.2186589 7.111786,4.2387132 8.22166,6.3534802 0.724022,1.379537 1.036394,3.001466 2.382135,12.367966 1.156361,8.048462 1.40413,9.389427 1.683308,9.110249 0.102223,-0.102107 0.456168,-3.26152 0.786655,-7.020816 0.330486,-3.759286 0.727499,-7.789369 0.882213,-8.955732 l 0.281345,-2.120666 0.898892,2.664778 c 0.494403,1.465627 1.178393,3.211707 1.520037,3.880179 0.341617,0.668483 0.833967,2.227351 1.094124,3.464183 0.26017,1.236819 1.093597,3.186429 1.852087,4.332476 1.59049,2.403159 2.68,5.340451 2.68257,7.232285 0,0.722991 0.45707,2.602459 1.01354,4.176591 1.17349,3.319644 1.22763,4.577394 0.45029,10.463684 -0.48921,3.704556 -0.48974,5.418845 -0.005,11.857128 0.31245,4.13955 0.6918,9.246661 0.84291,11.34913 0.15117,2.102482 0.40364,3.574402 0.56109,3.270943 0.15746,-0.303459 0.51996,-2.98962 0.80555,-5.969227 0.356,-3.714014 0.67646,-5.417489 1.01923,-5.417489 0.51263,0 0.92428,4.968043 1.25346,15.128071 0.22095,6.819603 -1.80094,17.387282 -4.33195,22.641502 l -1.20608,2.5038 0.20607,-1.70923 c 0.11335,-0.94007 0.21707,-4.3906 0.23049,-7.667855 0.0238,-5.76266 -0.0131,-6.027223 -1.11065,-8.043963 -1.40078,-2.573751 -3.76231,-5.291576 -6.430246,-7.400455 l -2.027274,-1.602469 -0.712699,2.303427 c -0.98774,3.192375 -2.255886,4.95759 -7.337731,10.213805 -6.529971,6.75405 -8.339981,9.98428 -9.968898,17.79097 -0.402657,1.92964 -0.639555,2.45111 -0.86484,1.90367 -0.550742,-1.3383 0.154517,-7.7778 1.185591,-10.82539 1.617026,-4.779514 2.458188,-5.961918 9.796452,-13.770385 3.247299,-3.45535 5.531221,-9.139314 4.449278,-11.072687 -0.359264,-0.641989 -0.471547,-0.587702 -1.033983,0.499908 -1.092408,2.11246 -4.240927,5.285804 -9.067805,9.139268 -5.395074,4.30707 -7.367818,6.904511 -8.923962,11.750038 -2.040568,6.353848 -2.076509,6.687988 -2.14373,19.939608 -0.04045,8.00601 -0.226514,13.05138 -0.504707,13.69704 -0.242252,0.56219 -0.452123,0.88281 -0.466355,0.71251 z m -11.410273,-7.53246 c -1.153499,-1.5022 -2.022013,-2.80649 -1.930093,-2.89842 0.266,-0.266 4.728242,4.81844 4.728242,5.38754 0,0.76487 -0.945008,-0.0758 -2.798149,-2.48912 z m 27.918228,-5.54827 c 0.107091,-0.50597 0.394683,-2.53888 0.638976,-4.51757 0.244292,-1.97869 0.655491,-4.09457 0.913738,-4.70196 0.706927,-1.6626 5.260561,-9.48612 5.521369,-9.48612 0.125032,0 0.119805,1.66013 -0.01182,3.68919 -0.23837,3.67912 -0.248094,3.70584 -3.580406,9.81279 -1.837767,3.368 -3.416848,6.12362 -3.509092,6.12362 -0.09226,0 -0.08009,-0.41399 0.027,-0.91995 z"
       id="path24"
       sodipodi:nodetypes="cssssssssssssssssssssssssssssssssssssssssscsssssssssssscssssssssssssssssssssssssssssscsssscsscsssssscscsscsssssssssscsccsssscssscsscc" />
  </g>
</svg>
